<?xml version="1.0" standalone="no"?>
<!DOCTYPE svg PUBLIC "-//W3C//DTD SVG 20010904//EN"
 "http://www.w3.org/TR/2001/REC-SVG-20010904/DTD/svg10.dtd">
<svg version="1.0" xmlns="http://www.w3.org/2000/svg"
 width="640.000000pt" height="640.000000pt" viewBox="0 0 640.000000 640.000000"
 preserveAspectRatio="xMidYMid meet">
<metadata>
Created by potrace 1.14, written by Peter Selinger 2001-2017
</metadata>
<g transform="translate(0.000000,640.000000) scale(0.100000,-0.100000)"
fill="#000000" stroke="none">
<path d="M3168 6325 c-2 -3 -67 -7 -144 -11 -76 -3 -150 -8 -164 -10 -14 -3
-70 -11 -125 -18 -55 -8 -131 -22 -170 -31 -169 -40 -234 -57 -289 -77 -45
-17 -61 -19 -64 -9 -3 8 -9 6 -18 -8 -8 -10 -29 -22 -47 -26 -17 -4 -41 -13
-52 -19 -11 -7 -47 -23 -80 -35 -67 -25 -236 -106 -275 -132 -14 -9 -59 -36
-100 -60 -41 -24 -91 -56 -110 -71 -19 -15 -39 -28 -44 -28 -5 0 -37 -21 -70
-47 -93 -71 -91 -70 -82 -55 4 6 2 12 -3 12 -6 0 -11 -7 -11 -16 0 -15 -37
-53 -52 -54 -3 0 -27 -20 -53 -45 -25 -25 -51 -43 -56 -39 -5 3 -8 1 -7 -4 2
-6 -40 -52 -93 -104 -53 -51 -99 -101 -102 -110 -4 -10 -11 -18 -16 -18 -5 0
-43 -43 -85 -95 -43 -53 -81 -93 -87 -90 -5 4 -9 -1 -9 -9 0 -9 -18 -42 -41
-73 -76 -108 -216 -328 -224 -352 -4 -14 -25 -59 -46 -100 -21 -42 -39 -81
-39 -86 0 -6 -14 -39 -31 -73 -17 -35 -42 -99 -55 -143 -14 -43 -29 -79 -33
-79 -3 0 -8 -11 -9 -25 -1 -14 -13 -67 -28 -118 -14 -50 -28 -110 -30 -131 -3
-22 -9 -47 -14 -55 -4 -9 -15 -68 -24 -131 -9 -62 -21 -117 -27 -121 -6 -4 -7
-8 -2 -10 6 -3 6 -52 0 -134 -13 -158 -9 -437 7 -545 2 -14 9 -63 15 -110 7
-47 19 -116 27 -155 9 -38 17 -79 19 -90 8 -47 57 -222 70 -250 7 -16 18 -50
25 -75 14 -58 29 -95 79 -202 22 -49 38 -95 34 -103 -3 -10 -1 -15 7 -13 12 3
17 -3 48 -67 49 -102 160 -286 183 -305 3 -3 13 -19 22 -37 9 -17 22 -37 29
-45 8 -7 44 -52 81 -100 37 -48 89 -109 115 -135 26 -27 54 -60 61 -75 8 -15
17 -26 20 -24 3 1 26 -21 51 -49 25 -29 59 -60 75 -70 17 -10 50 -39 75 -63
25 -24 61 -56 80 -71 19 -14 64 -49 100 -77 36 -29 79 -60 96 -70 17 -11 48
-31 70 -45 21 -14 55 -34 74 -45 19 -10 39 -24 45 -31 14 -16 256 -139 330
-168 33 -12 74 -30 90 -39 17 -9 36 -16 43 -16 7 0 32 -9 54 -20 23 -11 44
-18 46 -15 2 2 21 -3 40 -11 41 -17 241 -71 317 -85 120 -23 245 -41 310 -45
39 -2 93 -7 120 -10 97 -12 256 -19 263 -12 4 4 57 10 117 12 61 2 153 11 205
19 52 9 127 21 165 27 39 7 78 12 88 11 9 0 17 4 17 10 0 5 8 9 18 9 25 0 254
60 267 69 5 5 37 16 70 26 74 22 166 60 312 131 61 30 116 54 123 54 6 0 9 4
6 9 -3 5 4 11 17 15 12 3 31 12 42 21 11 8 70 48 131 88 97 63 175 117 209
145 6 5 17 6 25 4 8 -3 12 -1 7 3 -10 12 33 55 55 55 11 0 17 4 14 9 -3 5 18
28 46 52 69 59 228 215 228 224 0 4 43 52 96 108 52 56 102 116 111 132 9 17
29 45 44 63 16 18 29 37 29 42 0 4 24 44 54 87 29 43 68 105 86 138 18 33 38
67 45 75 7 8 20 38 30 65 10 28 26 61 35 75 10 14 25 48 35 75 10 28 28 73 40
100 24 54 31 76 69 200 13 44 32 105 41 135 9 30 19 71 21 90 2 19 8 46 13 60
5 14 14 61 21 105 6 44 13 95 16 113 23 153 38 476 25 537 -6 28 -13 91 -15
140 -3 50 -10 125 -16 169 -5 43 -8 82 -5 86 3 5 1 11 -4 14 -12 8 -44 153
-36 166 3 5 2 10 -3 10 -5 0 -12 12 -15 28 -7 41 -46 184 -56 207 -5 11 -20
52 -32 90 -13 39 -26 72 -29 75 -3 3 -14 28 -25 55 -17 48 -108 238 -143 300
-55 99 -191 304 -241 366 -25 30 -62 75 -81 99 -77 98 -294 321 -355 366 -22
16 -75 58 -119 94 -43 35 -88 71 -101 80 -12 8 -42 28 -66 44 -24 16 -54 39
-65 52 -12 12 -24 20 -27 18 -7 -7 -64 23 -74 39 -4 7 -29 21 -56 31 -26 10
-45 22 -41 27 3 5 -2 9 -10 9 -9 0 -53 19 -99 43 -45 23 -111 53 -147 67 -36
13 -69 26 -75 30 -5 4 -41 18 -80 30 -38 12 -76 28 -84 34 -8 6 -16 10 -17 9
-2 -1 -9 -1 -16 2 -50 16 -214 55 -234 55 -14 0 -27 7 -30 15 -4 8 -9 13 -13
10 -4 -2 -68 5 -142 16 -74 10 -172 22 -219 25 -47 3 -126 9 -177 15 -105 10
-128 11 -135 4z"/>
</g>
</svg>
